<?xml version="1.0" standalone="no"?>
<!DOCTYPE svg PUBLIC "-//W3C//DTD SVG 20010904//EN"
 "http://www.w3.org/TR/2001/REC-SVG-20010904/DTD/svg10.dtd">
<svg version="1.0" xmlns="http://www.w3.org/2000/svg"
 width="476.000000pt" height="476.000000pt" viewBox="0 0 476.000000 476.000000"
 preserveAspectRatio="xMidYMid meet">

<g transform="translate(0.000000,476.000000) scale(0.100000,-0.100000)"
fill="#000000" stroke="none">
<path d="M2097 4675 c-817 -99 -1530 -642 -1851 -1408 -126 -300 -179 -573
-179 -922 0 -357 78 -684 243 -1017 120 -241 264 -440 456 -630 289 -286 579
-454 994 -576 526 -155 1095 -106 1607 138 242 116 382 211 575 391 428 399
677 887 737 1441 14 123 14 425 1 543 -29 261 -97 489 -218 739 -156 321 -345
565 -607 784 -336 282 -789 473 -1237 521 -129 14 -386 12 -521 -4z m603 -650
c262 -47 488 -154 765 -361 l29 -22 -152 -7 -152 -7 -395 -403 -395 -403 0
-462 0 -462 392 -399 393 -399 160 -2 160 -3 -110 -82 c-170 -128 -448 -263
-613 -298 -229 -48 -619 -45 -817 6 -148 38 -387 145 -528 235 -70 46 -157
120 -157 135 0 5 66 9 147 9 l148 0 392 392 393 393 0 475 0 475 -397 397
-398 398 -155 0 -155 0 30 25 c55 46 199 142 290 194 162 93 386 167 576 190
113 14 438 6 549 -14z m1055 -682 c113 -156 203 -353 261 -570 24 -89 27 -120
31 -337 7 -307 -5 -419 -59 -585 -69 -207 -177 -404 -320 -582 l-27 -34 -1
154 0 155 -400 402 c-220 221 -400 409 -400 419 0 9 180 198 400 419 l400 403
0 154 0 154 28 -34 c15 -19 54 -72 87 -118z m-2637 -23 l3 -134 399 -402 c220
-222 400 -410 400 -420 0 -9 -180 -197 -400 -418 l-400 -402 -1 -100 c0 -54
-4 -119 -7 -144 l-7 -45 -48 60 c-156 196 -312 549 -337 760 -13 115 -13 464
0 577 12 104 45 212 111 367 86 200 240 449 272 438 8 -2 13 -45 15 -137z"/>
</g>
</svg>
